<svg xmlns="http://www.w3.org/2000/svg" viewBox="0 0 150 114.03"><defs><style>.cls-1{fill:#b3b3b3;}</style></defs><title>Asset 1</title><g id="Layer_2" data-name="Layer 2"><g id="Layer_4" data-name="Layer 4"><polygon class="cls-1" points="37.28 53.48 37.28 114.03 26.79 114.03 26.79 59.79 37.28 53.48"/><polygon class="cls-1" points="55.46 42.54 55.46 114.03 44.96 114.03 44.96 48.85 55.46 42.54"/><polygon class="cls-1" points="73.82 56.19 73.82 114.03 63.33 114.03 63.33 45.34 73.82 56.19"/><polygon class="cls-1" points="92.38 50.69 92.38 114.03 81.88 114.03 81.88 57.18 92.38 50.69"/><polygon class="cls-1" points="110.93 39.22 110.93 114.03 100.43 114.03 100.43 45.71 110.93 39.22"/><polygon class="cls-1" points="129.1 27.98 129.1 114.03 118.61 114.03 118.61 34.47 129.1 27.98"/><line class="cls-1" x1="37.28" y1="53.48" x2="26.78" y2="59.79"/><line class="cls-1" x1="55.46" y1="42.54" x2="44.96" y2="48.85"/><polygon class="cls-1" points="18.91 64.53 8.33 70.9 8.33 113.94 18.91 113.94 18.91 64.53"/><polygon class="cls-1" points="150 3.78 138.85 32.59 131.42 20.48 78.25 53.31 59.39 33.83 5.32 66.08 0 57.16 61.38 20.31 79.89 39.48 125.79 11.31 118.88 0 150 3.78"/></g></g></svg>